<svg xmlns="http://www.w3.org/2000/svg" xmlns:xlink="http://www.w3.org/1999/xlink" width="43" height="43" viewBox="0 0 43 43">
  <defs>
    <clipPath id="clip-path">
      <rect width="43" height="43" fill="none"/>
    </clipPath>
  </defs>
  <g id="Component_1_1" data-name="Component 1 – 1" clip-path="url(#clip-path)">
    <g id="Group_11" data-name="Group 11" transform="translate(-1800 -1150)" opacity="0.911">
      <g id="Path_8" data-name="Path 8" transform="translate(1800 1150)" fill="none">
        <path d="M21.5,0A21.5,21.5,0,1,1,0,21.5,21.5,21.5,0,0,1,21.5,0Z" stroke="none"/>
        <path d="M 21.5 2 C 18.86664009094238 2 16.31310081481934 2.515300750732422 13.91032981872559 3.531589508056641 C 11.58852958679199 4.513629913330078 9.502910614013672 5.919929504394531 7.711418151855469 7.711418151855469 C 5.919929504394531 9.502910614013672 4.513629913330078 11.58852958679199 3.531589508056641 13.91032981872559 C 2.515300750732422 16.31310081481934 2 18.86664009094238 2 21.5 C 2 24.13335990905762 2.515300750732422 26.68689918518066 3.531589508056641 29.08967018127441 C 4.513629913330078 31.41147041320801 5.919929504394531 33.49708938598633 7.711418151855469 35.28858184814453 C 9.502910614013672 37.08007049560547 11.58852958679199 38.48637008666992 13.91032981872559 39.46841049194336 C 16.31310081481934 40.48469924926758 18.86664009094238 41 21.5 41 C 24.13335990905762 41 26.68689918518066 40.48469924926758 29.08967018127441 39.46841049194336 C 31.41147041320801 38.48637008666992 33.49708938598633 37.08007049560547 35.28858184814453 35.28858184814453 C 37.08007049560547 33.49708938598633 38.48637008666992 31.41147041320801 39.46841049194336 29.08967018127441 C 40.48469924926758 26.68689918518066 41 24.13335990905762 41 21.5 C 41 18.86664009094238 40.48469924926758 16.31310081481934 39.46841049194336 13.91032981872559 C 38.48637008666992 11.58852958679199 37.08007049560547 9.502910614013672 35.28858184814453 7.711418151855469 C 33.49708938598633 5.919929504394531 31.41147041320801 4.513629913330078 29.08967018127441 3.531589508056641 C 26.68689918518066 2.515300750732422 24.13335990905762 2 21.5 2 M 21.5 0 C 33.37411880493164 0 43 9.625881195068359 43 21.5 C 43 33.37411880493164 33.37411880493164 43 21.5 43 C 9.625881195068359 43 0 33.37411880493164 0 21.5 C 0 9.625881195068359 9.625881195068359 0 21.5 0 Z" stroke="none" fill="#0a0a0a"/>
      </g>
      <g id="Group_5" data-name="Group 5" transform="translate(1810.366 1166.509)">
        <line id="Line_4" data-name="Line 4" x2="22.578" transform="translate(0 1)" fill="none" stroke="#0a0a0a" stroke-width="2"/>
        <line id="Line_5" data-name="Line 5" x2="22.578" transform="translate(0 8.666)" fill="none" stroke="#0a0a0a" stroke-width="2"/>
      </g>
    </g>
  </g>
</svg>
