<?xml version="1.0" standalone="no"?>
<!DOCTYPE svg PUBLIC "-//W3C//DTD SVG 20010904//EN"
 "http://www.w3.org/TR/2001/REC-SVG-20010904/DTD/svg10.dtd">
<svg version="1.0" xmlns="http://www.w3.org/2000/svg"
 width="260.000000pt" height="260.000000pt" viewBox="0 0 260.000000 260.000000"
 preserveAspectRatio="xMidYMid meet">
<metadata>
Created by potrace 1.11, written by Peter Selinger 2001-2013
</metadata>
<g transform="translate(0.000000,260.000000) scale(0.100000,-0.100000)"
fill="#000000" stroke="none">
<path d="M865 1766 c-41 -18 -83 -69 -91 -111 -10 -57 4 -104 45 -148 36 -38
43 -41 102 -45 55 -3 69 0 98 20 105 71 97 224 -15 278 -46 23 -96 25 -139 6z"/>
<path d="M1415 1766 c-90 -40 -121 -171 -58 -246 35 -42 74 -60 128 -60 84 0
150 58 161 141 15 120 -118 215 -231 165z"/>
<path d="M2123 1246 c-228 -167 -556 -247 -882 -217 -297 27 -580 113 -715
216 -58 44 -88 42 -113 -9 -31 -67 1 -111 146 -197 169 -101 437 -202 616
-234 113 -19 271 -19 375 1 221 42 521 188 643 312 49 51 59 104 27 145 -12
15 -25 27 -29 27 -4 0 -34 -20 -68 -44z"/>
</g>
</svg>
